<?xml version="1.0" encoding="UTF-8"?>
<!DOCTYPE svg PUBLIC "-//W3C//DTD SVG 1.1//EN" "http://www.w3.org/Graphics/SVG/1.1/DTD/svg11.dtd">
<svg xmlns="http://www.w3.org/2000/svg" version="1.1" width="1080px" height="616px" style="shape-rendering:geometricPrecision; text-rendering:geometricPrecision; image-rendering:optimizeQuality; fill-rule:evenodd; clip-rule:evenodd" xmlns:xlink="http://www.w3.org/1999/xlink">
<g><path style="opacity:1" fill="#fefefe" d="M -0.5,-0.5 C 359.5,-0.5 719.5,-0.5 1079.5,-0.5C 1079.5,204.833 1079.5,410.167 1079.5,615.5C 719.5,615.5 359.5,615.5 -0.5,615.5C -0.5,410.167 -0.5,204.833 -0.5,-0.5 Z"/></g>
<g><path style="opacity:1" fill="#e26b44" d="M 566.5,123.5 C 566.5,125.167 566.5,126.833 566.5,128.5C 576.5,128.5 586.5,128.5 596.5,128.5C 620.298,134.95 644.298,141.117 668.5,147C 648.563,152.151 628.563,156.984 608.5,161.5C 609.188,166.377 608.021,170.71 605,174.5C 597.179,180.743 589.179,186.743 581,192.5C 580.667,201.167 580.333,209.833 580,218.5C 575.165,237.508 562.998,247.508 543.5,248.5C 543.157,258.045 542.157,267.378 540.5,276.5C 540.5,265.833 540.5,255.167 540.5,244.5C 560.509,245.106 572.676,235.773 577,216.5C 577.168,207.814 577.668,199.148 578.5,190.5C 586.807,184.693 594.974,178.693 603,172.5C 604.289,169.649 604.789,166.649 604.5,163.5C 593.255,165.126 581.922,165.959 570.5,166C 569.584,166.374 568.75,166.874 568,167.5C 565.975,183.245 557.808,188.245 543.5,182.5C 538.965,185.532 534.298,188.365 529.5,191C 523.106,197.106 521.773,204.273 525.5,212.5C 523.218,213.9 521.718,213.234 521,210.5C 518.169,201.309 520.669,193.809 528.5,188C 532.844,185.829 536.844,183.163 540.5,180C 540.167,179.667 539.833,179.333 539.5,179C 536.9,181.167 533.9,183.167 530.5,185C 522.649,187.138 516.815,184.638 513,177.5C 504.609,187.753 495.776,188.087 486.5,178.5C 479.764,186.51 472.097,187.51 463.5,181.5C 463.44,180.957 463.107,180.624 462.5,180.5C 461.175,192.994 461.175,205.327 462.5,217.5C 466.016,236.785 477.682,245.785 497.5,244.5C 497.832,255.52 497.499,266.52 496.5,277.5C 495.914,277.291 495.414,276.957 495,276.5C 494.5,266.839 494.334,257.172 494.5,247.5C 477.205,247.773 465.705,239.773 460,223.5C 459.726,204.154 459.226,184.821 458.5,165.5C 454.818,165.335 451.152,165.501 447.5,166C 443.919,169.063 440.085,169.23 436,166.5C 431.554,169.412 427.387,169.078 423.5,165.5C 418.533,164.671 413.533,164.171 408.5,164C 407.299,163.097 406.465,161.931 406,160.5C 405.168,150.151 405.334,139.817 406.5,129.5C 407.287,128.758 407.953,127.925 408.5,127C 413.833,126.667 419.167,126.333 424.5,126C 428.349,122.538 432.015,122.705 435.5,126.5C 439.806,122.564 443.806,122.731 447.5,127C 451.152,127.499 454.818,127.665 458.5,127.5C 459.883,116.285 466.216,111.119 477.5,112C 480.853,113.677 483.853,115.843 486.5,118.5C 495.392,109.2 504.225,109.2 513,118.5C 521.62,109.177 530.287,109.177 539,118.5C 547.044,109.7 555.378,109.367 564,117.5C 565.122,119.407 565.955,121.407 566.5,123.5 Z"/></g>
<g><path style="opacity:1" fill="#fef8f6" d="M 468.5,115.5 C 476.886,113.44 482.386,116.44 485,124.5C 485.667,140.833 485.667,157.167 485,173.5C 481.437,181.245 475.603,183.745 467.5,181C 464.894,179.062 463.061,176.562 462,173.5C 461.333,157.167 461.333,140.833 462,124.5C 462.873,120.475 465.039,117.475 468.5,115.5 Z"/></g>
<g><path style="opacity:1" fill="#fefcfb" d="M 494.5,115.5 C 502.384,113.526 507.884,116.193 511,123.5C 511.667,140.167 511.667,156.833 511,173.5C 506.995,181.835 500.828,184.002 492.5,180C 490.513,178.681 489.346,176.848 489,174.5C 488.333,157.5 488.333,140.5 489,123.5C 489.625,119.891 491.458,117.224 494.5,115.5 Z"/></g>
<g><path style="opacity:1" fill="#fefcfb" d="M 521.5,115.5 C 529.544,113.766 534.71,116.766 537,124.5C 537.667,140.833 537.667,157.167 537,173.5C 533.157,182.008 526.99,184.175 518.5,180C 516.683,178.2 515.516,176.034 515,173.5C 514.333,156.5 514.333,139.5 515,122.5C 516.356,119.314 518.522,116.981 521.5,115.5 Z"/></g>
<g><path style="opacity:1" fill="#fefcfb" d="M 547.5,115.5 C 555.307,113.42 560.474,116.087 563,123.5C 563.667,139.833 563.667,156.167 563,172.5C 561.661,178.858 557.661,182.191 551,182.5C 545.443,181.942 542.11,178.942 541,173.5C 540.333,156.5 540.333,139.5 541,122.5C 542.694,119.642 544.861,117.309 547.5,115.5 Z"/></g>
<g><path style="opacity:1" fill="#fdf3f0" d="M 427.5,126.5 C 430.547,125.855 432.713,126.855 434,129.5C 434.667,140.833 434.667,152.167 434,163.5C 431,166.167 428,166.167 425,163.5C 424.333,152.167 424.333,140.833 425,129.5C 425.698,128.309 426.531,127.309 427.5,126.5 Z"/></g>
<g><path style="opacity:1" fill="#fefcfc" d="M 439.5,126.5 C 442.547,125.855 444.713,126.855 446,129.5C 446.667,140.833 446.667,152.167 446,163.5C 443.582,165.68 440.916,166.013 438,164.5C 437.333,152.5 437.333,140.5 438,128.5C 438.717,127.956 439.217,127.289 439.5,126.5 Z"/></g>
<g><path style="opacity:1" fill="#f1b5a0" d="M 566.5,123.5 C 567.434,124.568 567.768,125.901 567.5,127.5C 577.348,127.173 587.014,127.506 596.5,128.5C 586.5,128.5 576.5,128.5 566.5,128.5C 566.5,126.833 566.5,125.167 566.5,123.5 Z"/></g>
<g><path style="opacity:1" fill="#fef6f3" d="M 410.5,129.5 C 414.5,129.5 418.5,129.5 422.5,129.5C 422.5,140.167 422.5,150.833 422.5,161.5C 417.678,162.065 413.178,161.399 409,159.5C 408.333,150.167 408.333,140.833 409,131.5C 409.717,130.956 410.217,130.289 410.5,129.5 Z"/></g>
<g><path style="opacity:1" fill="#fefffe" d="M 449.5,130.5 C 452.5,130.5 455.5,130.5 458.5,130.5C 458.5,131.5 458.5,132.5 458.5,133.5C 455.5,133.5 452.5,133.5 449.5,133.5C 449.5,132.5 449.5,131.5 449.5,130.5 Z"/></g>
<g><path style="opacity:1" fill="#f0b29c" d="M 595.5,131.5 C 586.167,131.5 576.833,131.5 567.5,131.5C 567.5,132.5 567.5,133.5 567.5,134.5C 566.566,133.432 566.232,132.099 566.5,130.5C 576.348,130.173 586.014,130.506 595.5,131.5 Z"/></g>
<g><path style="opacity:1" fill="#fefcfb" d="M 595.5,131.5 C 596.973,132.072 598.307,132.905 599.5,134C 588.839,134.5 578.172,134.667 567.5,134.5C 567.5,133.5 567.5,132.5 567.5,131.5C 576.833,131.5 586.167,131.5 595.5,131.5 Z"/></g>
<g><path style="opacity:1" fill="#fefaf8" d="M 636.5,141.5 C 637.833,145.167 637.833,148.833 636.5,152.5C 626.443,154.514 616.443,156.847 606.5,159.5C 605.833,159.333 605.167,159.167 604.5,159C 605.833,158 607.167,157 608.5,156C 605.372,155.125 602.372,153.958 599.5,152.5C 602.166,150.165 605.166,148.331 608.5,147C 605.166,145.669 602.166,143.835 599.5,141.5C 602.421,139.911 605.421,138.411 608.5,137C 605.972,136.002 605.972,135.169 608.5,134.5C 617.852,136.838 627.185,139.171 636.5,141.5 Z"/></g>
<g><path style="opacity:1" fill="#fefffe" d="M 449.5,136.5 C 452.5,136.5 455.5,136.5 458.5,136.5C 458.5,139.167 458.5,141.833 458.5,144.5C 455.5,144.5 452.5,144.5 449.5,144.5C 449.5,141.833 449.5,139.167 449.5,136.5 Z"/></g>
<g><path style="opacity:1" fill="#fefaf9" d="M 598.5,144.5 C 588.347,145.494 578.014,145.828 567.5,145.5C 566.527,143.052 566.194,140.385 566.5,137.5C 577.172,137.333 587.839,137.5 598.5,138C 596.5,139 594.5,140 592.5,141C 594.727,141.941 596.727,143.108 598.5,144.5 Z"/></g>
<g><path style="opacity:1" fill="#efab95" d="M 636.5,141.5 C 637.787,142.871 638.453,144.705 638.5,147C 638.453,149.295 637.787,151.129 636.5,152.5C 637.833,148.833 637.833,145.167 636.5,141.5 Z"/></g>
<g><path style="opacity:1" fill="#e88c6f" d="M 598.5,144.5 C 599.289,144.783 599.956,145.283 600.5,146C 589.326,146.826 578.326,146.659 567.5,145.5C 578.014,145.828 588.347,145.494 598.5,144.5 Z"/></g>
<g><path style="opacity:1" fill="#fefbfa" d="M 449.5,147.5 C 452.5,147.5 455.5,147.5 458.5,147.5C 458.5,150.5 458.5,153.5 458.5,156.5C 455.5,156.5 452.5,156.5 449.5,156.5C 449.5,153.5 449.5,150.5 449.5,147.5 Z"/></g>
<g><path style="opacity:1" fill="#f7d8cd" d="M 596.5,150.5 C 587.014,149.506 577.348,149.173 567.5,149.5C 567.5,152.167 567.5,154.833 567.5,157.5C 566.523,154.713 566.19,151.713 566.5,148.5C 577.172,148.333 587.839,148.5 598.5,149C 597.956,149.717 597.289,150.217 596.5,150.5 Z"/></g>
<g><path style="opacity:1" fill="#fefcfb" d="M 596.5,150.5 C 595.027,151.072 593.693,151.905 592.5,153C 596.027,153.951 599.36,155.284 602.5,157C 590.838,157.5 579.171,157.667 567.5,157.5C 567.5,154.833 567.5,152.167 567.5,149.5C 577.348,149.173 587.014,149.506 596.5,150.5 Z"/></g>
<g><path style="opacity:1" fill="#fdf5f2" d="M 449.5,159.5 C 452.5,159.5 455.5,159.5 458.5,159.5C 458.5,160.5 458.5,161.5 458.5,162.5C 455.5,162.5 452.5,162.5 449.5,162.5C 449.5,161.5 449.5,160.5 449.5,159.5 Z"/></g>
<g><path style="opacity:1" fill="#fefaf9" d="M 566.5,160.5 C 576.839,160.334 587.172,160.5 597.5,161C 592.336,162.145 587.002,162.645 581.5,162.5C 576.119,162.494 571.119,161.828 566.5,160.5 Z"/></g>
<g><path style="opacity:1" fill="#e78b6d" d="M 463.5,181.5 C 462.505,193.322 462.172,205.322 462.5,217.5C 461.175,205.327 461.175,192.994 462.5,180.5C 463.107,180.624 463.44,180.957 463.5,181.5 Z"/></g>
<g><path style="opacity:1" fill="#e36e48" d="M 477.5,191.5 C 494.415,190.371 506.582,197.371 514,212.5C 515.195,216.751 515.695,221.085 515.5,225.5C 514.5,225.5 513.5,225.5 512.5,225.5C 512.636,210.485 505.636,200.651 491.5,196C 487.128,195.579 482.795,194.912 478.5,194C 477.748,193.329 477.414,192.496 477.5,191.5 Z"/></g>
<g><path style="opacity:1" fill="#e99074" d="M 543.5,248.5 C 543.5,258.167 543.5,267.833 543.5,277.5C 542.209,277.737 541.209,277.404 540.5,276.5C 542.157,267.378 543.157,258.045 543.5,248.5 Z"/></g>
<g><path style="opacity:1" fill="#f6cec0" d="M 394.5,315.5 C 387.833,315.5 381.167,315.5 374.5,315.5C 374.5,319.833 374.5,324.167 374.5,328.5C 373.514,324.03 373.181,319.363 373.5,314.5C 380.687,314.175 387.687,314.509 394.5,315.5 Z"/></g>
<g><path style="opacity:1" fill="#e1663e" d="M 207.5,315.5 C 220.837,315.333 234.171,315.5 247.5,316C 251,319.5 254.5,323 258,326.5C 258.667,337.167 258.667,347.833 258,358.5C 255.65,360.683 253.483,363.016 251.5,365.5C 253.643,372.073 255.477,378.74 257,385.5C 257.667,386.167 258.333,386.833 259,387.5C 259.499,392.155 259.666,396.821 259.5,401.5C 252.5,401.5 245.5,401.5 238.5,401.5C 237.989,395.601 238.655,389.934 240.5,384.5C 239.333,379.833 238.167,375.167 237,370.5C 233.27,369.54 229.437,369.207 225.5,369.5C 225.334,375.176 225.501,380.843 226,386.5C 226.414,386.957 226.914,387.291 227.5,387.5C 228.493,392.12 228.827,396.786 228.5,401.5C 221.5,401.5 214.5,401.5 207.5,401.5C 209.473,387.479 210.473,373.146 210.5,358.5C 210.333,349.167 210.167,339.833 210,330.5C 209.586,330.043 209.086,329.709 208.5,329.5C 207.507,324.88 207.173,320.214 207.5,315.5 Z"/></g>
<g><path style="opacity:1" fill="#e1653d" d="M 310.5,315.5 C 310.5,321.167 310.5,326.833 310.5,332.5C 305.833,332.5 301.167,332.5 296.5,332.5C 296.389,331.883 296.056,331.383 295.5,331C 291.848,330.501 288.182,330.335 284.5,330.5C 284.5,337.167 284.5,343.833 284.5,350.5C 291.167,350.5 297.833,350.5 304.5,350.5C 304.5,355.5 304.5,360.5 304.5,365.5C 297.833,365.5 291.167,365.5 284.5,365.5C 284.5,372.5 284.5,379.5 284.5,386.5C 292.914,384.543 301.581,383.543 310.5,383.5C 310.5,389.5 310.5,395.5 310.5,401.5C 295.833,401.5 281.167,401.5 266.5,401.5C 268.473,387.479 269.473,373.146 269.5,358.5C 269.333,349.167 269.167,339.833 269,330.5C 268.586,330.043 268.086,329.709 267.5,329.5C 266.507,324.88 266.173,320.214 266.5,315.5C 281.167,315.5 295.833,315.5 310.5,315.5 Z"/></g>
<g><path style="opacity:1" fill="#eea790" d="M 310.5,315.5 C 311.49,321.31 311.823,327.31 311.5,333.5C 306.305,333.821 301.305,333.487 296.5,332.5C 301.167,332.5 305.833,332.5 310.5,332.5C 310.5,326.833 310.5,321.167 310.5,315.5 Z"/></g>
<g><path style="opacity:1" fill="#e1653d" d="M 329.5,315.5 C 338.173,315.334 346.84,315.5 355.5,316C 359,319.5 362.5,323 366,326.5C 366.499,331.823 366.666,337.156 366.5,342.5C 361.5,342.5 356.5,342.5 351.5,342.5C 351.665,339.15 351.498,335.817 351,332.5C 350.5,332 350,331.5 349.5,331C 344.833,330.333 340.167,330.333 335.5,331C 335,331.5 334.5,332 334,332.5C 333.333,337.833 333.333,343.167 334,348.5C 334.5,349 335,349.5 335.5,350C 342.167,350.333 348.833,350.667 355.5,351C 359,354.5 362.5,358 366,361.5C 366.667,371.167 366.667,380.833 366,390.5C 362.5,394 359,397.5 355.5,401C 346.833,401.667 338.167,401.667 329.5,401C 326,397.5 322.5,394 319,390.5C 318.501,384.843 318.334,379.176 318.5,373.5C 323.5,373.5 328.5,373.5 333.5,373.5C 333.003,377.759 333.669,381.759 335.5,385.5C 340.167,386.833 344.833,386.833 349.5,385.5C 349.808,384.692 350.308,384.025 351,383.5C 351.667,378.167 351.667,372.833 351,367.5C 350.5,367 350,366.5 349.5,366C 342.833,365.667 336.167,365.333 329.5,365C 326,361.5 322.5,358 319,354.5C 318.333,345.167 318.333,335.833 319,326.5C 322.704,322.964 326.204,319.298 329.5,315.5 Z"/></g>
<g><path style="opacity:1" fill="#e1663f" d="M 394.5,315.5 C 394.942,320.691 394.442,325.691 393,330.5C 392.333,348.5 392.333,366.5 393,384.5C 393.5,385 394,385.5 394.5,386C 397,386.167 399.5,386.333 402,386.5C 405.035,386.391 407.869,385.724 410.5,384.5C 411.666,366.509 411.833,348.509 411,330.5C 410.586,330.043 410.086,329.709 409.5,329.5C 408.507,324.88 408.173,320.214 408.5,315.5C 415.5,315.5 422.5,315.5 429.5,315.5C 429.827,320.214 429.493,324.88 428.5,329.5C 427.914,329.709 427.414,330.043 427,330.5C 426.667,350.5 426.333,370.5 426,390.5C 422.5,394 419,397.5 415.5,401C 406.167,401.667 396.833,401.667 387.5,401C 384,397.5 380.5,394 377,390.5C 376.667,370.5 376.333,350.5 376,330.5C 375.283,329.956 374.783,329.289 374.5,328.5C 374.5,324.167 374.5,319.833 374.5,315.5C 381.167,315.5 387.833,315.5 394.5,315.5 Z"/></g>
<g><path style="opacity:1" fill="#e1653d" d="M 481.5,386.5 C 482.658,376.675 482.825,366.675 482,356.5C 480.961,357.244 480.461,358.244 480.5,359.5C 478.515,364.141 476.515,368.807 474.5,373.5C 470.217,374.492 465.884,374.826 461.5,374.5C 460.12,369.406 458.453,364.406 456.5,359.5C 456.013,358.527 455.513,357.527 455,356.5C 454.175,366.675 454.342,376.675 455.5,386.5C 457.36,391.193 458.026,396.193 457.5,401.5C 450.5,401.5 443.5,401.5 436.5,401.5C 438.473,387.479 439.473,373.146 439.5,358.5C 439.333,349.167 439.167,339.833 439,330.5C 438.586,330.043 438.086,329.709 437.5,329.5C 436.507,324.88 436.173,320.214 436.5,315.5C 442.842,315.334 449.175,315.5 455.5,316C 459.858,326.069 464.024,336.236 468,346.5C 469.385,345.449 470.385,344.116 471,342.5C 474.296,333.615 477.796,324.782 481.5,316C 487.825,315.5 494.158,315.334 500.5,315.5C 500.827,320.214 500.493,324.88 499.5,329.5C 498.914,329.709 498.414,330.043 498,330.5C 497.333,349.167 497.333,367.833 498,386.5C 498.414,386.957 498.914,387.291 499.5,387.5C 500.493,392.12 500.827,396.786 500.5,401.5C 493.5,401.5 486.5,401.5 479.5,401.5C 479.334,396.821 479.501,392.155 480,387.5C 480.383,386.944 480.883,386.611 481.5,386.5 Z"/></g>
<g><path style="opacity:1" fill="#e1653d" d="M 537.5,331.5 C 533.702,330.517 529.702,330.183 525.5,330.5C 525.176,337.354 525.509,344.021 526.5,350.5C 532.833,350.5 539.167,350.5 545.5,350.5C 545.5,355.5 545.5,360.5 545.5,365.5C 538.833,365.5 532.167,365.5 525.5,365.5C 525.5,372.5 525.5,379.5 525.5,386.5C 529.702,386.817 533.702,386.483 537.5,385.5C 537.611,384.883 537.944,384.383 538.5,384C 543.155,383.501 547.821,383.334 552.5,383.5C 552.5,389.5 552.5,395.5 552.5,401.5C 537.5,401.5 522.5,401.5 507.5,401.5C 509.473,387.479 510.473,373.146 510.5,358.5C 510.333,349.167 510.167,339.833 510,330.5C 509.586,330.043 509.086,329.709 508.5,329.5C 507.507,324.88 507.173,320.214 507.5,315.5C 522.5,315.5 537.5,315.5 552.5,315.5C 552.5,321.5 552.5,327.5 552.5,333.5C 547.821,333.666 543.155,333.499 538.5,333C 537.944,332.617 537.611,332.117 537.5,331.5 Z"/></g>
<g><path style="opacity:1" fill="#e1653d" d="M 631.5,327.5 C 631.5,332.5 631.5,337.5 631.5,342.5C 626.5,342.5 621.5,342.5 616.5,342.5C 616.665,339.15 616.498,335.817 616,332.5C 615.5,332 615,331.5 614.5,331C 609.5,330.333 604.5,330.333 599.5,331C 599,331.5 598.5,332 598,332.5C 597.333,349.833 597.333,367.167 598,384.5C 598.5,385 599,385.5 599.5,386C 604.5,386.667 609.5,386.667 614.5,386C 615,385.5 615.5,385 616,384.5C 616.499,380.848 616.665,377.182 616.5,373.5C 621.5,373.5 626.5,373.5 631.5,373.5C 631.666,379.176 631.499,384.843 631,390.5C 627.5,394 624,397.5 620.5,401C 611.5,401.667 602.5,401.667 593.5,401C 590,397.5 586.5,394 583,390.5C 582.333,368.833 582.333,347.167 583,325.5C 586.167,322.333 589.333,319.167 592.5,316C 601.833,315.333 611.167,315.333 620.5,316C 624.37,319.702 628.037,323.536 631.5,327.5 Z"/></g>
<g><path style="opacity:1" fill="#e1653d" d="M 650.5,315.5 C 660.172,315.334 669.839,315.5 679.5,316C 682.667,319.167 685.833,322.333 689,325.5C 689.667,347.167 689.667,368.833 689,390.5C 685.5,394 682,397.5 678.5,401C 669.167,401.667 659.833,401.667 650.5,401C 647,397.5 643.5,394 640,390.5C 639.333,369.167 639.333,347.833 640,326.5C 643.704,322.964 647.204,319.298 650.5,315.5 Z"/></g>
<g><path style="opacity:1" fill="#e1663e" d="M 706.5,315.5 C 717.167,315.5 727.833,315.5 738.5,315.5C 739.011,321.399 738.345,327.066 736.5,332.5C 741.468,355.677 746.135,378.677 750.5,401.5C 745.167,401.5 739.833,401.5 734.5,401.5C 733.779,395.119 732.779,388.786 731.5,382.5C 725.5,382.5 719.5,382.5 713.5,382.5C 712.371,388.813 711.371,395.146 710.5,401.5C 705.5,401.5 700.5,401.5 695.5,401.5C 694.688,394.075 695.855,387.075 699,380.5C 701.845,364.106 705.012,347.773 708.5,331.5C 706.714,326.332 706.048,320.998 706.5,315.5 Z"/></g>
<g><path style="opacity:1" fill="#e1653d" d="M 804.5,326.5 C 804.5,331.833 804.5,337.167 804.5,342.5C 799.5,342.5 794.5,342.5 789.5,342.5C 789.665,339.15 789.498,335.817 789,332.5C 788.5,332 788,331.5 787.5,331C 782.5,330.333 777.5,330.333 772.5,331C 772,331.5 771.5,332 771,332.5C 770.333,349.833 770.333,367.167 771,384.5C 771.5,385 772,385.5 772.5,386C 777.5,386.667 782.5,386.667 787.5,386C 788,385.5 788.5,385 789,384.5C 789.499,380.848 789.665,377.182 789.5,373.5C 794.5,373.5 799.5,373.5 804.5,373.5C 804.666,379.176 804.499,384.843 804,390.5C 800.5,394 797,397.5 793.5,401C 784.5,401.667 775.5,401.667 766.5,401C 763,397.5 759.5,394 756,390.5C 755.333,369.167 755.333,347.833 756,326.5C 759.5,323 763,319.5 766.5,316C 775.833,315.333 785.167,315.333 794.5,316C 798.037,319.369 801.371,322.869 804.5,326.5 Z"/></g>
<g><path style="opacity:1" fill="#e1653d" d="M 812.5,315.5 C 819.167,315.5 825.833,315.5 832.5,315.5C 831.007,327.001 830.341,338.668 830.5,350.5C 836.833,350.5 843.167,350.5 849.5,350.5C 849.666,343.825 849.5,337.158 849,330.5C 848.586,330.043 848.086,329.709 847.5,329.5C 846.507,324.88 846.173,320.214 846.5,315.5C 853.5,315.5 860.5,315.5 867.5,315.5C 867.827,320.214 867.493,324.88 866.5,329.5C 865.914,329.709 865.414,330.043 865,330.5C 864.833,339.833 864.667,349.167 864.5,358.5C 864.527,373.146 865.527,387.479 867.5,401.5C 860.5,401.5 853.5,401.5 846.5,401.5C 848.515,389.816 849.515,377.816 849.5,365.5C 843.167,365.5 836.833,365.5 830.5,365.5C 830.316,377.666 830.983,389.666 832.5,401.5C 825.833,401.5 819.167,401.5 812.5,401.5C 814.473,387.479 815.473,373.146 815.5,358.5C 815.333,349.167 815.167,339.833 815,330.5C 814.586,330.043 814.086,329.709 813.5,329.5C 812.507,324.88 812.173,320.214 812.5,315.5 Z"/></g>
<g><path style="opacity:1" fill="#fefaf9" d="M 225.5,330.5 C 230.511,330.334 235.511,330.501 240.5,331C 241,331.5 241.5,332 242,332.5C 242.667,339.167 242.667,345.833 242,352.5C 241.5,353 241,353.5 240.5,354C 235.511,354.499 230.511,354.666 225.5,354.5C 225.5,346.5 225.5,338.5 225.5,330.5 Z"/></g>
<g><path style="opacity:1" fill="#f7d7cb" d="M 537.5,331.5 C 533.833,331.5 530.167,331.5 526.5,331.5C 526.5,337.833 526.5,344.167 526.5,350.5C 525.509,344.021 525.176,337.354 525.5,330.5C 529.702,330.183 533.702,330.517 537.5,331.5 Z"/></g>
<g><path style="opacity:1" fill="#fefbf9" d="M 656.5,330.5 C 661.844,330.334 667.177,330.501 672.5,331C 673,331.5 673.5,332 674,332.5C 674.667,349.833 674.667,367.167 674,384.5C 673.5,385 673,385.5 672.5,386C 667.167,386.667 661.833,386.667 656.5,386C 656,385.5 655.5,385 655,384.5C 654.333,367.167 654.333,349.833 655,332.5C 655.717,331.956 656.217,331.289 656.5,330.5 Z"/></g>
<g><path style="opacity:1" fill="#f6ccbe" d="M 631.5,327.5 C 632.488,332.64 632.821,337.974 632.5,343.5C 626.974,343.821 621.64,343.488 616.5,342.5C 621.5,342.5 626.5,342.5 631.5,342.5C 631.5,337.5 631.5,332.5 631.5,327.5 Z"/></g>
<g><path style="opacity:1" fill="#f6ccbd" d="M 804.5,326.5 C 805.489,331.975 805.822,337.642 805.5,343.5C 799.974,343.821 794.64,343.488 789.5,342.5C 794.5,342.5 799.5,342.5 804.5,342.5C 804.5,337.167 804.5,331.833 804.5,326.5 Z"/></g>
<g><path style="opacity:1" fill="#fef5f2" d="M 722.5,342.5 C 724.785,350.589 726.451,358.923 727.5,367.5C 723.818,367.665 720.152,367.499 716.5,367C 719.067,359.007 721.067,350.84 722.5,342.5 Z"/></g>
<g><path style="opacity:1" fill="#f7d5c9" d="M 481.5,386.5 C 481.827,377.318 481.493,368.318 480.5,359.5C 480.461,358.244 480.961,357.244 482,356.5C 482.825,366.675 482.658,376.675 481.5,386.5 Z"/></g>
<g><path style="opacity:1" fill="#f7d6ca" d="M 456.5,359.5 C 455.507,368.318 455.173,377.318 455.5,386.5C 454.342,376.675 454.175,366.675 455,356.5C 455.513,357.527 456.013,358.527 456.5,359.5 Z"/></g>
<g><path style="opacity:1" fill="#f5c5b5" d="M 545.5,365.5 C 539.355,366.49 533.022,366.823 526.5,366.5C 526.5,372.833 526.5,379.167 526.5,385.5C 530.167,385.5 533.833,385.5 537.5,385.5C 533.702,386.483 529.702,386.817 525.5,386.5C 525.5,379.5 525.5,372.5 525.5,365.5C 532.167,365.5 538.833,365.5 545.5,365.5 Z"/></g>
</svg>
