<?xml version="1.0" encoding="UTF-8"?>
<!DOCTYPE svg PUBLIC "-//W3C//DTD SVG 1.1//EN" "http://www.w3.org/Graphics/SVG/1.1/DTD/svg11.dtd">
<svg xmlns="http://www.w3.org/2000/svg" version="1.1" width="834px" height="224px" style="shape-rendering:geometricPrecision; text-rendering:geometricPrecision; image-rendering:optimizeQuality; fill-rule:evenodd; clip-rule:evenodd" xmlns:xlink="http://www.w3.org/1999/xlink">
<g><path style="opacity:1" fill="#fefefe" d="M -0.5,-0.5 C 277.5,-0.5 555.5,-0.5 833.5,-0.5C 833.5,74.1667 833.5,148.833 833.5,223.5C 555.5,223.5 277.5,223.5 -0.5,223.5C -0.5,148.833 -0.5,74.1667 -0.5,-0.5 Z"/></g>
<g><path style="opacity:1" fill="#eca756" d="M 756.5,71.5 C 756.795,69.2646 756.461,67.2646 755.5,65.5C 758.974,62.1983 762.641,59.0316 766.5,56C 767.793,55.51 769.127,55.3433 770.5,55.5C 766.981,61.6955 762.314,67.0288 756.5,71.5 Z"/></g>
<g><path style="opacity:1" fill="#e68a50" d="M 755.5,65.5 C 756.461,67.2646 756.795,69.2646 756.5,71.5C 750.193,77.4722 743.86,83.4722 737.5,89.5C 736.42,87.9553 736.42,86.4553 737.5,85C 736.944,83.9889 736.278,83.1556 735.5,82.5C 742.127,76.8435 748.793,71.1768 755.5,65.5 Z"/></g>
<g><path style="opacity:1" fill="#e26a43" d="M 82.5,116.5 C 89.0905,114.134 91.2572,109.468 89,102.5C 87.7494,99.6193 85.5827,97.786 82.5,97C 74.8406,96.5003 67.1739,96.3336 59.5,96.5C 59.5,99.8333 59.5,103.167 59.5,106.5C 59.189,107.478 58.5223,108.145 57.5,108.5C 56.5059,103.544 56.1725,98.544 56.5,93.5C 66.1724,93.3335 75.8391,93.5002 85.5,94C 95.7676,101.844 96.101,110.177 86.5,119C 84.913,119.862 83.2464,120.529 81.5,121C 85.3333,124.833 89.1667,128.667 93,132.5C 93.9856,137.176 92.1522,139.342 87.5,139C 83.4591,135.815 80.4591,131.981 78.5,127.5C 82.6424,129.12 86.1424,131.786 89,135.5C 89.1667,135.167 89.3333,134.833 89.5,134.5C 85.1819,129.681 80.6819,125.015 76,120.5C 75.3162,119.216 75.4829,118.049 76.5,117C 78.4727,116.505 80.4727,116.338 82.5,116.5 Z"/></g>
<g><path style="opacity:1" fill="#e26b45" d="M 109.5,108.5 C 107.61,108.703 106.11,108.037 105,106.5C 104.218,103.743 104.718,101.243 106.5,99C 141.167,97.6672 141.167,97.0005 106.5,97C 102.875,99.2063 101.708,102.373 103,106.5C 103.748,108.751 105.248,110.084 107.5,110.5C 114.532,110.17 121.532,110.503 128.5,111.5C 131.113,114.63 131.113,117.796 128.5,121C 122.175,121.5 115.842,121.666 109.5,121.5C 102.613,123.021 100.78,127.021 104,133.5C 105.33,134.582 106.83,135.249 108.5,135.5C 117.506,135.334 126.506,135.5 135.5,136C 136.833,137 136.833,138 135.5,139C 126.167,139.667 116.833,139.667 107.5,139C 97.0281,133.654 96.0281,126.987 104.5,119C 112.095,117.644 119.762,117.144 127.5,117.5C 127.5,116.5 127.5,115.5 127.5,114.5C 120.492,114.666 113.492,114.5 106.5,114C 96.9312,108.17 96.2645,101.504 104.5,94C 114.5,93.3333 124.5,93.3333 134.5,94C 137.167,96.3333 137.167,98.6667 134.5,101C 125.833,101.333 117.167,101.667 108.5,102C 107.549,102.718 107.383,103.551 108,104.5C 109.487,105.155 110.653,106.155 111.5,107.5C 111.043,108.298 110.376,108.631 109.5,108.5 Z"/></g>
<g><path style="opacity:1" fill="#e26a43" d="M 177.5,125.5 C 176.776,120.014 173.776,116.681 168.5,115.5C 163.156,115.666 157.823,115.499 152.5,115C 147.06,112.292 145.393,108.126 147.5,102.5C 148.962,101.542 150.295,100.376 151.5,99C 158.856,98.8313 166.189,98.3313 173.5,97.5C 166.858,96.3358 160.192,96.1691 153.5,97C 150.453,97.5158 148.12,99.0158 146.5,101.5C 145.7,103.896 144.7,106.229 143.5,108.5C 142.119,108 141.453,107 141.5,105.5C 142.472,100.045 145.472,96.2119 150.5,94C 158.833,93.3333 167.167,93.3333 175.5,94C 177.994,96.4231 177.994,98.7564 175.5,101C 168.167,101.333 160.833,101.667 153.5,102C 149.946,104.655 149.613,107.655 152.5,111C 158.167,111.333 163.833,111.667 169.5,112C 176.923,114.022 180.589,118.855 180.5,126.5C 179.209,126.737 178.209,126.404 177.5,125.5 Z"/></g>
<g><path style="opacity:1" fill="#e26942" d="M 189.5,120.5 C 191.142,132.154 197.809,137.321 209.5,136C 215.914,134.585 220.081,130.752 222,124.5C 222.5,115.506 222.666,106.506 222.5,97.5C 222.44,96.9569 222.107,96.6236 221.5,96.5C 220.502,104.472 220.169,112.472 220.5,120.5C 218.752,131.379 212.418,135.879 201.5,134C 197,132.167 193.833,129 192,124.5C 191.5,114.506 191.334,104.506 191.5,94.5C 192.209,93.596 193.209,93.2627 194.5,93.5C 194.334,102.506 194.5,111.506 195,120.5C 196.747,128.992 201.914,132.159 210.5,130C 212.624,128.878 214.457,127.378 216,125.5C 217.258,115.573 217.924,105.573 218,95.5C 221.012,92.7501 223.679,93.0834 226,96.5C 226.667,105.5 226.667,114.5 226,123.5C 220.076,139.033 209.576,143.199 194.5,136C 188.432,131.699 185.765,125.865 186.5,118.5C 188.179,118.285 189.179,118.952 189.5,120.5 Z"/></g>
<g><path style="opacity:1" fill="#e26c46" d="M 280.5,129.5 C 277.327,134.397 273.66,134.73 269.5,130.5C 269.808,120.085 269.475,109.751 268.5,99.5C 265.718,96.1461 262.385,95.6461 258.5,98C 250.667,109.833 242.833,121.667 235,133.5C 234.312,134.332 234.479,134.998 235.5,135.5C 243.235,124.375 250.735,113.042 258,101.5C 260.873,97.9559 264.04,97.6225 267.5,100.5C 268.45,110.448 268.784,120.448 268.5,130.5C 270.697,135.662 274.364,136.829 279.5,134C 280.381,133.292 281.047,132.458 281.5,131.5C 281.5,121.833 281.5,112.167 281.5,102.5C 282.833,102.5 284.167,102.5 285.5,102.5C 285.666,112.506 285.5,122.506 285,132.5C 280.282,139.027 274.449,140.194 267.5,136C 266.283,134.352 265.45,132.519 265,130.5C 264.5,121.173 264.334,111.839 264.5,102.5C 263.022,102.238 261.689,102.571 260.5,103.5C 253.083,114.664 245.917,125.998 239,137.5C 233.434,140.613 231.101,138.946 232,132.5C 239.25,121.669 246.25,110.669 253,99.5C 259.1,92.0225 265.434,91.6892 272,98.5C 273.429,109.088 273.929,119.755 273.5,130.5C 274.5,130.5 275.5,130.5 276.5,130.5C 276.334,120.494 276.5,110.494 277,100.5C 281.329,92.8098 287.162,91.4765 294.5,96.5C 295.584,97.6651 296.417,98.9984 297,100.5C 297.667,113.167 297.667,125.833 297,138.5C 296.586,138.957 296.086,139.291 295.5,139.5C 294.667,126.846 294.167,114.18 294,101.5C 290.122,95.2809 285.789,94.9475 281,100.5C 280.5,110.161 280.334,119.828 280.5,129.5 Z"/></g>
<g><path style="opacity:1" fill="#e26a44" d="M 313.5,108.5 C 308.849,107.826 307.349,105.159 309,100.5C 309.5,100 310,99.5 310.5,99C 345.167,97.6672 345.167,97.0005 310.5,97C 306.875,99.2063 305.708,102.373 307,106.5C 307.748,108.751 309.248,110.084 311.5,110.5C 317.842,110.334 324.175,110.5 330.5,111C 334.994,113.467 335.66,116.8 332.5,121C 325.842,121.5 319.175,121.666 312.5,121.5C 308.609,121.892 306.609,124.059 306.5,128C 306.26,132.374 308.26,134.874 312.5,135.5C 321.173,135.334 329.84,135.5 338.5,136C 339.833,137 339.833,138 338.5,139C 329.5,139.667 320.5,139.667 311.5,139C 300.966,133.738 299.966,127.071 308.5,119C 316.13,117.975 323.797,117.141 331.5,116.5C 331.291,115.914 330.957,115.414 330.5,115C 324.5,114.667 318.5,114.333 312.5,114C 305.829,113.158 302.496,109.325 302.5,102.5C 303.626,99.0932 305.626,96.2599 308.5,94C 318.744,93.1814 328.91,93.348 339,94.5C 341.145,96.8953 340.978,99.062 338.5,101C 329.833,101.333 321.167,101.667 312.5,102C 311.978,102.561 311.645,103.228 311.5,104C 312.509,105.168 313.509,106.335 314.5,107.5C 314.376,108.107 314.043,108.44 313.5,108.5 Z"/></g>
<g><path style="opacity:1" fill="#de5844" d="M 396.5,93.5 C 405.998,91.999 413.998,94.6657 420.5,101.5C 418.133,103.704 415.633,105.704 413,107.5C 408.424,103.322 403.258,102.488 397.5,105C 389.888,111.966 389.555,119.3 396.5,127C 402.142,129.336 407.476,128.836 412.5,125.5C 415.563,127.025 418.23,129.025 420.5,131.5C 409.214,141.691 397.714,142.025 386,132.5C 375.754,115.59 379.254,102.59 396.5,93.5 Z"/></g>
<g><path style="opacity:1" fill="#e99552" d="M 541.5,93.5 C 547.304,93.1221 552.97,93.7887 558.5,95.5C 561.432,96.7997 563.766,98.7997 565.5,101.5C 563.192,103.471 560.858,105.471 558.5,107.5C 550.571,101.466 543.738,102.466 538,110.5C 536.804,116.052 537.637,121.219 540.5,126C 546.52,129.37 552.52,129.203 558.5,125.5C 560.576,127.288 562.743,128.954 565,130.5C 565.163,132.387 564.329,133.887 562.5,135C 545.712,144.182 533.546,140.016 526,122.5C 524.343,109.145 529.51,99.4785 541.5,93.5 Z"/></g>
<g><path style="opacity:1" fill="#eba352" d="M 584.5,94.5 C 584.5,100.833 584.5,107.167 584.5,113.5C 586.833,113.5 589.167,113.5 591.5,113.5C 591.082,114.222 590.416,114.722 589.5,115C 592.167,115.667 592.167,116.333 589.5,117C 592.167,117.667 592.167,118.333 589.5,119C 592.167,119.667 592.167,120.333 589.5,121C 590.167,121.333 590.833,121.667 591.5,122C 588.964,122.186 586.631,122.686 584.5,123.5C 584.5,128.833 584.5,134.167 584.5,139.5C 580.833,139.5 577.167,139.5 573.5,139.5C 573.5,124.5 573.5,109.5 573.5,94.5C 577.167,94.5 580.833,94.5 584.5,94.5 Z"/></g>
<g><path style="opacity:1" fill="#fae8d3" d="M 584.5,94.5 C 585.49,100.31 585.823,106.31 585.5,112.5C 590.5,112.5 595.5,112.5 600.5,112.5C 600.178,106.642 600.511,100.975 601.5,95.5C 601.5,101.5 601.5,107.5 601.5,113.5C 598.167,113.5 594.833,113.5 591.5,113.5C 589.167,113.5 586.833,113.5 584.5,113.5C 584.5,107.167 584.5,100.833 584.5,94.5 Z"/></g>
<g><path style="opacity:1" fill="#efb056" d="M 584.5,123.5 C 586.631,122.686 588.964,122.186 591.5,122C 590.833,121.667 590.167,121.333 589.5,121C 592.167,120.333 592.167,119.667 589.5,119C 592.167,118.333 592.167,117.667 589.5,117C 592.167,116.333 592.167,115.667 589.5,115C 590.416,114.722 591.082,114.222 591.5,113.5C 594.833,113.5 598.167,113.5 601.5,113.5C 601.5,107.5 601.5,101.5 601.5,95.5C 604.962,94.5184 608.629,94.185 612.5,94.5C 612.5,109.5 612.5,124.5 612.5,139.5C 608.833,139.5 605.167,139.5 601.5,139.5C 601.5,134.167 601.5,128.833 601.5,123.5C 595.833,123.5 590.167,123.5 584.5,123.5 Z"/></g>
<g><path style="opacity:1" fill="#e16f49" d="M 735.5,82.5 C 736.278,83.1556 736.944,83.9889 737.5,85C 736.42,86.4553 736.42,87.9553 737.5,89.5C 731.778,95.2269 725.778,100.56 719.5,105.5C 719.203,102.946 719.203,100.446 719.5,98C 718.906,97.5357 718.239,97.369 717.5,97.5C 723.46,92.5104 729.46,87.5104 735.5,82.5 Z"/></g>
<g><path style="opacity:1" fill="#e06746" d="M 442.5,95.5 C 444.857,95.3367 447.19,95.5034 449.5,96C 445.5,96.6667 445.5,97.3333 449.5,98C 444.167,98.6667 444.167,99.3333 449.5,100C 446.833,100.667 446.833,101.333 449.5,102C 448.167,102.333 446.833,102.667 445.5,103C 446.416,103.278 447.082,103.778 447.5,104.5C 439.216,109.215 437.383,115.882 442,124.5C 443.73,126.402 445.563,128.069 447.5,129.5C 447.082,130.222 446.416,130.722 445.5,131C 448.167,132.333 448.167,133.667 445.5,135C 446.167,135.333 446.833,135.667 447.5,136C 446.167,136.667 446.167,137.333 447.5,138C 446.552,138.483 445.552,138.649 444.5,138.5C 431.169,133.419 426.003,123.752 429,109.5C 431.502,102.77 436.002,98.1029 442.5,95.5 Z"/></g>
<g><path style="opacity:1" fill="#f9dcd2" d="M 82.5,116.5 C 82.5,115.833 82.1667,115.5 81.5,115.5C 86.0811,113.894 88.4145,110.561 88.5,105.5C 86.9704,101.306 83.9704,98.9731 79.5,98.5C 73.3554,97.5098 67.0221,97.1765 60.5,97.5C 60.81,100.713 60.4767,103.713 59.5,106.5C 59.5,103.167 59.5,99.8333 59.5,96.5C 67.1739,96.3336 74.8406,96.5003 82.5,97C 85.5827,97.786 87.7494,99.6193 89,102.5C 91.2572,109.468 89.0905,114.134 82.5,116.5 Z"/></g>
<g><path style="opacity:1" fill="#f8d8cc" d="M 109.5,108.5 C 108.833,109.167 108.167,109.833 107.5,110.5C 105.248,110.084 103.748,108.751 103,106.5C 101.708,102.373 102.875,99.2063 106.5,97C 141.167,97.0005 141.167,97.6672 106.5,99C 104.718,101.243 104.218,103.743 105,106.5C 106.11,108.037 107.61,108.703 109.5,108.5 Z"/></g>
<g><path style="opacity:1" fill="#f8d9ce" d="M 147.5,102.5 C 147.5,101.833 147.167,101.5 146.5,101.5C 148.12,99.0158 150.453,97.5158 153.5,97C 160.192,96.1691 166.858,96.3358 173.5,97.5C 166.189,98.3313 158.856,98.8313 151.5,99C 150.295,100.376 148.962,101.542 147.5,102.5 Z"/></g>
<g><path style="opacity:1" fill="#f0b39d" d="M 222.5,97.5 C 221.833,105.167 221.167,112.833 220.5,120.5C 220.169,112.472 220.502,104.472 221.5,96.5C 222.107,96.6236 222.44,96.9569 222.5,97.5 Z"/></g>
<g><path style="opacity:1" fill="#f8d8cd" d="M 313.5,108.5 C 312.833,109.167 312.167,109.833 311.5,110.5C 309.248,110.084 307.748,108.751 307,106.5C 305.708,102.373 306.875,99.2063 310.5,97C 345.167,97.0005 345.167,97.6672 310.5,99C 310,99.5 309.5,100 309,100.5C 307.349,105.159 308.849,107.826 313.5,108.5 Z"/></g>
<g><path style="opacity:1" fill="#e27249" d="M 444.5,138.5 C 445.552,138.649 446.552,138.483 447.5,138C 446.167,137.333 446.167,136.667 447.5,136C 446.833,135.667 446.167,135.333 445.5,135C 448.167,133.667 448.167,132.333 445.5,131C 446.416,130.722 447.082,130.222 447.5,129.5C 460.494,129.344 465.327,123.01 462,110.5C 458.887,104.19 454.054,102.19 447.5,104.5C 447.082,103.778 446.416,103.278 445.5,103C 446.833,102.667 448.167,102.333 449.5,102C 446.833,101.333 446.833,100.667 449.5,100C 444.167,99.3333 444.167,98.6667 449.5,98C 445.5,97.3333 445.5,96.6667 449.5,96C 447.19,95.5034 444.857,95.3367 442.5,95.5C 454.578,90.6898 464.412,93.6898 472,104.5C 477.612,117.655 474.778,128.489 463.5,137C 457.208,139.592 450.874,140.092 444.5,138.5 Z"/></g>
<g><path style="opacity:1" fill="#e26a43" d="M 79.5,98.5 C 83.9704,98.9731 86.9704,101.306 88.5,105.5C 88.4145,110.561 86.0811,113.894 81.5,115.5C 76.4889,115.334 71.4889,115.501 66.5,116C 63,116.833 60.8333,119 60,122.5C 59.5006,127.823 59.334,133.156 59.5,138.5C 58.5,138.5 57.5,138.5 56.5,138.5C 52.992,117.841 61.6587,108.674 82.5,111C 85.8065,106.208 84.6399,103.041 79,101.5C 78.2599,100.251 78.4265,99.2506 79.5,98.5 Z"/></g>
<g><path style="opacity:1" fill="#e4814b" d="M 495.5,94.5 C 498.85,94.335 502.183,94.5017 505.5,95C 512.247,109.406 517.914,124.24 522.5,139.5C 518.818,139.665 515.152,139.499 511.5,139C 510.308,137.088 509.308,135.088 508.5,133C 502.804,132.17 497.137,132.337 491.5,133.5C 490.833,135.167 490.167,136.833 489.5,138.5C 485.893,139.489 482.226,139.823 478.5,139.5C 483.885,124.396 489.552,109.396 495.5,94.5 Z"/></g>
<g><path style="opacity:1" fill="#fefdfc" d="M 268.5,99.5 C 269.475,109.751 269.808,120.085 269.5,130.5C 269.167,130.5 268.833,130.5 268.5,130.5C 268.784,120.448 268.45,110.448 267.5,100.5C 267.5,99.8333 267.833,99.5 268.5,99.5 Z"/></g>
<g><path style="opacity:1" fill="#de5c44" d="M 717.5,97.5 C 718.239,97.369 718.906,97.5357 719.5,98C 719.203,100.446 719.203,102.946 719.5,105.5C 716.854,108.812 713.854,111.812 710.5,114.5C 708.167,112.833 706.167,110.833 704.5,108.5C 708.534,104.464 712.868,100.798 717.5,97.5 Z"/></g>
<g><path style="opacity:1" fill="#fef9f8" d="M 447.5,129.5 C 445.563,128.069 443.73,126.402 442,124.5C 437.383,115.882 439.216,109.215 447.5,104.5C 454.054,102.19 458.887,104.19 462,110.5C 465.327,123.01 460.494,129.344 447.5,129.5 Z"/></g>
<g><path style="opacity:1" fill="#faddd3" d="M 268.5,99.5 C 267.833,99.5 267.5,99.8333 267.5,100.5C 264.04,97.6225 260.873,97.9559 258,101.5C 250.735,113.042 243.235,124.375 235.5,135.5C 234.479,134.998 234.312,134.332 235,133.5C 242.833,121.667 250.667,109.833 258.5,98C 262.385,95.6461 265.718,96.1461 268.5,99.5 Z"/></g>
<g><path style="opacity:1" fill="#fdf6f2" d="M 499.5,108.5 C 500.586,108.62 501.253,109.287 501.5,110.5C 502.634,114.568 503.967,118.568 505.5,122.5C 502.232,123.487 498.898,123.82 495.5,123.5C 496.833,118.5 498.167,113.5 499.5,108.5 Z"/></g>
<g><path style="opacity:1" fill="#e37751" d="M 705.5,114.5 C 705.5,115.833 705.5,117.167 705.5,118.5C 702.653,116.486 700.32,113.986 698.5,111C 698.63,109.941 699.13,109.108 700,108.5C 702.04,110.37 703.873,112.37 705.5,114.5 Z"/></g>
<g><path style="opacity:1" fill="#e17149" d="M 679.5,135.5 C 681.62,130.644 683.453,125.644 685,120.5C 689.53,113.412 694.863,112.745 701,118.5C 703.255,123.226 702.422,127.393 698.5,131C 692.368,133.327 686.035,134.827 679.5,135.5 Z"/></g>
<g><path style="opacity:1" fill="#ea9b51" d="M 705.5,114.5 C 708.044,115.708 709.378,117.708 709.5,120.5C 707.62,120.771 706.287,120.104 705.5,118.5C 705.5,117.167 705.5,115.833 705.5,114.5 Z"/></g>
<g><path style="opacity:1" fill="#f8d4c8" d="M 168.5,115.5 C 173.776,116.681 176.776,120.014 177.5,125.5C 176.833,125.833 176.167,126.167 175.5,126.5C 176.154,122.317 174.488,119.484 170.5,118C 165.177,117.501 159.844,117.334 154.5,117.5C 159.167,116.833 163.833,116.167 168.5,115.5 Z"/></g>
<g><path style="opacity:1" fill="#e26a44" d="M 154.5,117.5 C 159.844,117.334 165.177,117.501 170.5,118C 174.488,119.484 176.154,122.317 175.5,126.5C 174.683,130.985 172.017,133.318 167.5,133.5C 160.468,133.17 153.468,133.503 146.5,134.5C 146.624,135.107 146.957,135.44 147.5,135.5C 154.175,135.334 160.842,135.5 167.5,136C 168.833,137 168.833,138 167.5,139C 160.144,139.831 152.811,139.665 145.5,138.5C 142.9,135.959 142.9,133.459 145.5,131C 153.167,130.667 160.833,130.333 168.5,130C 172.085,127.472 172.418,124.472 169.5,121C 164.5,120.667 159.5,120.333 154.5,120C 153.226,119.023 153.226,118.189 154.5,117.5 Z"/></g>
<g><path style="opacity:1" fill="#f9dbd0" d="M 109.5,121.5 C 115.167,122.167 120.833,122.833 126.5,123.5C 119.825,123.334 113.158,123.5 106.5,124C 104.556,126.153 104.056,128.653 105,131.5C 106.444,133.155 108.278,133.822 110.5,133.5C 109.833,134.167 109.167,134.833 108.5,135.5C 106.83,135.249 105.33,134.582 104,133.5C 100.78,127.021 102.613,123.021 109.5,121.5 Z"/></g>
<g><path style="opacity:1" fill="#e1663e" d="M 126.5,123.5 C 127.625,124.348 127.625,125.348 126.5,126.5C 119.745,125.877 113.412,126.544 107.5,128.5C 109.279,129.67 110.279,131.336 110.5,133.5C 108.278,133.822 106.444,133.155 105,131.5C 104.056,128.653 104.556,126.153 106.5,124C 113.158,123.5 119.825,123.334 126.5,123.5 Z"/></g>
<g><path style="opacity:1" fill="#f9d9ce" d="M 312.5,121.5 C 318.5,122.167 324.5,122.833 330.5,123.5C 323.825,123.334 317.158,123.5 310.5,124C 308.556,126.153 308.056,128.653 309,131.5C 310.444,133.155 312.278,133.822 314.5,133.5C 313.833,134.167 313.167,134.833 312.5,135.5C 308.26,134.874 306.26,132.374 306.5,128C 306.609,124.059 308.609,121.892 312.5,121.5 Z"/></g>
<g><path style="opacity:1" fill="#e1673f" d="M 330.5,123.5 C 331.598,124.397 331.598,125.23 330.5,126C 324.5,126.333 318.5,126.667 312.5,127C 311.378,128.613 311.878,129.78 314,130.5C 314.483,131.448 314.649,132.448 314.5,133.5C 312.278,133.822 310.444,133.155 309,131.5C 308.056,128.653 308.556,126.153 310.5,124C 317.158,123.5 323.825,123.334 330.5,123.5 Z"/></g>
<g><path style="opacity:1" fill="#f7d2c5" d="M 126.5,126.5 C 120.267,127.203 113.934,127.87 107.5,128.5C 113.412,126.544 119.745,125.877 126.5,126.5 Z"/></g>
<g><path style="opacity:1" fill="#fbe5dd" d="M 191.5,94.5 C 191.334,104.506 191.5,114.506 192,124.5C 193.833,129 197,132.167 201.5,134C 212.418,135.879 218.752,131.379 220.5,120.5C 221.167,112.833 221.833,105.167 222.5,97.5C 222.666,106.506 222.5,115.506 222,124.5C 220.081,130.752 215.914,134.585 209.5,136C 197.809,137.321 191.142,132.154 189.5,120.5C 190.167,111.833 190.833,103.167 191.5,94.5 Z"/></g>
<g><path style="opacity:1" fill="#f9d5c9" d="M 280.5,129.5 C 280.328,130.492 280.662,131.158 281.5,131.5C 281.047,132.458 280.381,133.292 279.5,134C 274.364,136.829 270.697,135.662 268.5,130.5C 268.833,130.5 269.167,130.5 269.5,130.5C 273.66,134.73 277.327,134.397 280.5,129.5 Z"/></g>
<g><path style="opacity:1" fill="#f0af99" d="M 167.5,133.5 C 160.833,134.167 154.167,134.833 147.5,135.5C 146.957,135.44 146.624,135.107 146.5,134.5C 153.468,133.503 160.468,133.17 167.5,133.5 Z"/></g>
<g><path style="opacity:1" fill="#df5b47" d="M 679.5,135.5 C 673.094,138.132 667.594,142.132 663,147.5C 660.226,154.131 661.726,159.631 667.5,164C 668.448,164.483 669.448,164.649 670.5,164.5C 670.763,168.152 670.43,171.485 669.5,174.5C 659.316,172.562 653.983,166.229 653.5,155.5C 656.827,142.145 665.493,135.478 679.5,135.5 Z"/></g>
<g><path style="opacity:1" fill="#e47f4c" d="M 719.5,153.5 C 719.155,157.202 719.489,160.702 720.5,164C 717.834,165.061 715.167,165.894 712.5,166.5C 708.03,167.435 703.697,168.768 699.5,170.5C 699.818,165.968 699.485,161.634 698.5,157.5C 705.04,154.393 712.04,153.06 719.5,153.5 Z"/></g>
<g><path style="opacity:1" fill="#e99556" d="M 719.5,153.5 C 724.207,153.835 728.541,155.168 732.5,157.5C 731.762,161.397 731.762,165.063 732.5,168.5C 725.967,166.794 719.3,166.128 712.5,166.5C 715.167,165.894 717.834,165.061 720.5,164C 719.489,160.702 719.155,157.202 719.5,153.5 Z"/></g>
<g><path style="opacity:1" fill="#eba053" d="M 732.5,157.5 C 740.772,161.26 747.772,166.76 753.5,174C 756.246,175.75 759.246,176.75 762.5,177C 758.878,178.106 755.211,178.439 751.5,178C 745.455,174.311 739.121,171.144 732.5,168.5C 731.762,165.063 731.762,161.397 732.5,157.5 Z"/></g>
<g><path style="opacity:1" fill="#e06847" d="M 698.5,157.5 C 699.485,161.634 699.818,165.968 699.5,170.5C 689.799,175.116 679.799,176.449 669.5,174.5C 670.43,171.485 670.763,168.152 670.5,164.5C 673.187,164.664 675.854,164.497 678.5,164C 685.291,162.098 691.958,159.931 698.5,157.5 Z"/></g>
</svg>
